<?xml version="1.0" standalone="no"?>
<!DOCTYPE svg PUBLIC "-//W3C//DTD SVG 1.1//EN" "http://www.w3.org/Graphics/SVG/1.1/DTD/svg11.dtd">
<svg class="icon" width="128px" height="128px" viewBox="0 0 1024 1024" version="1.1" xmlns="http://www.w3.org/2000/svg">
  <path fill="#666666" d="M74.666667 512C74.666667 753.066667 270.933333 949.333333 512 949.333333S949.333333 753.066667 949.333333 512 753.066667 74.666667 512 74.666667 74.666667 270.933333 74.666667 512z m810.666666 0c0 204.8-168.533333 373.333333-373.333333 373.333333S138.666667 716.8 138.666667 512 307.2 138.666667 512 138.666667 885.333333 307.2 885.333333 512zM480 341.333333L480 618.666667l-128-119.466667c-12.8-12.8-34.133333-10.666667-44.8 2.133333s-10.666667 34.133333 2.133333 44.79999999l181.333334 170.66666701c12.8 10.666667 32 10.666667 44.8 0l181.333333-170.666667c6.4-6.4 10.666667-14.933333 10.666667-23.466666 0-8.533333-2.133333-14.933333-8.533334-21.333334-12.8-12.8-32-12.8-44.8-2.133333l-128 119.466667 0-277.333334c0-17.066667-14.933333-32-32-32.00000001s-34.133333 14.933333-34.133333 32.00000001z" />
</svg>