<?xml version="1.0" standalone="no"?><!DOCTYPE svg PUBLIC "-//W3C//DTD SVG 1.1//EN" "http://www.w3.org/Graphics/SVG/1.1/DTD/svg11.dtd"><svg class="icon" width="128px" height="128px" viewBox="0 0 1024 1024" version="1.1" xmlns="http://www.w3.org/2000/svg"><path fill="#666666" d="M456.533333 55.466667c-12.8-4.266667-27.733333 2.133333-36.266666 12.8l-234.666667 362.666666c-6.4 10.666667-6.4 21.333333-2.133333 32 6.4 10.666667 17.066667 17.066667 27.733333 17.066667h234.666667c17.066667 0 32-14.933333 32-32V85.333333c2.133333-14.933333-6.4-27.733333-21.333334-29.866666zM810.666667 544H576c-17.066667 0-32 14.933333-32 32v362.666667c0 14.933333 8.533333 25.6 23.466667 29.866666 2.133333 0 6.4 2.133333 8.533333 2.133334 10.666667 0 21.333333-4.266667 27.733333-14.933334l234.666667-362.666666c6.4-10.666667 6.4-21.333333 2.133333-32s-19.2-17.066667-29.866666-17.066667zM448 544H85.333333c-14.933333 0-27.733333 8.533333-29.866666 23.466667-4.266667 12.8 2.133333 27.733333 12.8 36.266666l362.666666 234.666667c4.266667 4.266667 10.666667 4.266667 17.066667 4.266667 4.266667 0 10.666667-2.133333 14.933333-4.266667 10.666667-6.4 17.066667-17.066667 17.066667-27.733333V576c0-17.066667-14.933333-32-32-32zM955.733333 420.266667l-362.666666-234.666667c-10.666667-6.4-21.333333-6.4-32-2.133333-10.666667 6.4-17.066667 17.066667-17.066667 27.733333v234.666667c0 17.066667 14.933333 32 32 32h362.666667c14.933333 0 25.6-8.533333 29.866666-23.466667s0-25.6-12.8-34.133333z" /></svg>