<?xml version="1.0" standalone="no"?><!DOCTYPE svg PUBLIC "-//W3C//DTD SVG 1.1//EN" "http://www.w3.org/Graphics/SVG/1.1/DTD/svg11.dtd"><svg class="icon" width="128px" height="128px" viewBox="0 0 1024 1024" version="1.1" xmlns="http://www.w3.org/2000/svg"><path fill="#666666" d="M396.8 140.8c-12.8-4.266667-25.6-2.133333-34.133333 6.4l-76.8 76.8-128-125.866667c-17.066667-17.066667-42.666667-17.066667-59.733334 0-17.066667 17.066667-17.066667 42.666667 0 59.733334l125.866667 125.866666-76.8 76.8c-8.533333 8.533333-12.8 23.466667-6.4 34.133334 4.266667 12.8 17.066667 19.2 29.866667 19.2h213.333333c17.066667 0 32-14.933333 32-32V170.666667c0-12.8-8.533333-25.6-19.2-29.866667zM800 738.133333l76.8-76.8c8.533333-8.533333 12.8-23.466667 6.4-34.133333s-17.066667-19.2-29.866667-19.2H640c-17.066667 0-32 14.933333-32 32v213.333333c0 12.8 8.533333 25.6 19.2 29.866667 4.266667 2.133333 8.533333 2.133333 12.8 2.133333 8.533333 0 17.066667-4.266667 23.466667-8.533333l76.8-76.8 125.866666 125.866667c8.533333 8.533333 19.2 12.8 29.866667 12.8s21.333333-4.266667 29.866667-12.8c17.066667-17.066667 17.066667-42.666667 0-59.733334l-125.866667-128zM384 608H170.666667c-12.8 0-25.6 8.533333-29.866667 19.2-4.266667 12.8-2.133333 25.6 6.4 34.133333l76.8 76.8-125.866667 125.866667c-17.066667 17.066667-17.066667 42.666667 0 59.733333 8.533333 10.666667 19.2 14.933333 29.866667 14.933334s21.333333-4.266667 29.866667-12.8l125.866666-125.866667 76.8 76.8c6.4 6.4 14.933333 8.533333 23.466667 8.533333 4.266667 0 8.533333 0 12.8-2.133333 12.8-4.266667 19.2-17.066667 19.2-29.866667V640c0-17.066667-14.933333-32-32-32zM640 416h213.333333c12.8 0 25.6-8.533333 29.866667-19.2s2.133333-25.6-6.4-34.133333l-76.8-76.8 125.866667-125.866667c17.066667-17.066667 17.066667-42.666667 0-59.733333-17.066667-17.066667-42.666667-17.066667-59.733334 0l-125.866666 125.866666L663.466667 149.333333c-8.533333-8.533333-23.466667-12.8-34.133334-6.4-12.8 4.266667-19.2 17.066667-19.2 29.866667v213.333333c-2.133333 14.933333 12.8 29.866667 29.866667 29.866667z" /></svg>