<?xml version="1.0" standalone="no"?><!DOCTYPE svg PUBLIC "-//W3C//DTD SVG 1.1//EN" "http://www.w3.org/Graphics/SVG/1.1/DTD/svg11.dtd"><svg class="icon" width="128px" height="128px" viewBox="0 0 1024 1024" version="1.1" xmlns="http://www.w3.org/2000/svg"><path fill="#666666" d="M768 74.666667c40.533333 0 72.533333 32 74.666667 70.4v294.4c-40.533333-21.333333-89.6-34.133333-138.666667-34.133334-164.266667 0-298.666667 134.4-298.666667 298.666667 0 102.4 51.2 192 128 245.333333H192c-40.533333 0-72.533333-32-74.666667-70.4V149.333333c0-40.533333 32-72.533333 70.4-74.666666H768z m-405.333333 362.666666h-108.8c-17.066667 2.133333-29.866667 14.933333-29.866667 32s12.8 29.866667 29.866667 32H364.8c17.066667-2.133333 29.866667-14.933333 29.866667-32s-14.933333-32-32-32z m320-170.666666H253.866667c-17.066667 2.133333-29.866667 14.933333-29.866667 32s12.8 29.866667 29.866667 32H684.8c17.066667-2.133333 29.866667-14.933333 29.866667-32s-14.933333-32-32-32zM714.666667 469.333333C851.2 469.333333 960 578.133333 960 714.666667S851.2 960 714.666667 960 469.333333 851.2 469.333333 714.666667 578.133333 469.333333 714.666667 469.333333z m0 106.666667c-17.066667 0-32 14.933333-32 32v113.066667c2.133333 10.666667 8.533333 21.333333 19.2 25.6l85.333333 38.4 2.133333 2.133333c14.933333 4.266667 32-2.133333 38.4-17.066667l2.133334-2.133333c4.266667-14.933333-2.133333-32-17.066667-38.4L746.666667 699.733333V605.866667c-2.133333-17.066667-14.933333-29.866667-32-29.866667z" /></svg>