<?xml version="1.0" standalone="no"?>
<!DOCTYPE svg PUBLIC "-//W3C//DTD SVG 1.1//EN" "http://www.w3.org/Graphics/SVG/1.1/DTD/svg11.dtd">
<svg t="1635819986940" class="icon" viewBox="0 0 1024 1024" version="1.1" xmlns="http://www.w3.org/2000/svg" p-id="49257" width="128" height="128">
  <path d="M170.666667 213.333333m-64 0a64 64 0 1 0 128 0 64 64 0 1 0-128 0Z" p-id="49258" fill="#666666"></path>
  <path d="M170.666667 512m-64 0a64 64 0 1 0 128 0 64 64 0 1 0-128 0Z" p-id="49259" fill="#666666"></path>
  <path d="M170.666667 810.666667m-64 0a64 64 0 1 0 128 0 64 64 0 1 0-128 0Z" p-id="49260" fill="#666666"></path>
  <path d="M896 778.666667H362.666667c-17.066667 0-32 14.933333-32 32s14.933333 32 32 32h533.333333c17.066667 0 32-14.933333 32-32s-14.933333-32-32-32zM362.666667 245.333333h533.333333c17.066667 0 32-14.933333 32-32s-14.933333-32-32-32H362.666667c-17.066667 0-32 14.933333-32 32s14.933333 32 32 32zM896 480H362.666667c-17.066667 0-32 14.933333-32 32s14.933333 32 32 32h533.333333c17.066667 0 32-14.933333 32-32s-14.933333-32-32-32z" p-id="49261" fill="#666666"></path>
</svg>