<?xml version="1.0" standalone="no"?><!DOCTYPE svg PUBLIC "-//W3C//DTD SVG 1.1//EN" "http://www.w3.org/Graphics/SVG/1.1/DTD/svg11.dtd"><svg class="icon" width="64px" height="64.00px" viewBox="0 0 1024 1024" version="1.1" xmlns="http://www.w3.org/2000/svg"><path fill="#666666" d="M927.70455703 670.59877927a38.83614815 38.83614815 0 0 1 55.14733038 55.14733038l-155.34459259 155.34459258a38.83614815 38.83614815 0 0 1-55.14733037-55.14733037zM838.76977778 853.51703705a38.83614815 38.83614815 0 0 1-77.6722963 0V154.46637038a38.83614815 38.83614815 0 0 1 77.6722963 0zM100.88296297 193.30251853a38.83614815 38.83614815 0 0 1 0-77.6722963h543.70607406a38.83614815 38.83614815 0 0 1 0 77.6722963z m0 233.01688889a38.83614815 38.83614815 0 0 1 0-77.67229631h543.70607406a38.83614815 38.83614815 0 0 1 0 77.67229631z m0 233.01688889a38.83614815 38.83614815 0 0 1 0-77.67229631h543.70607406a38.83614815 38.83614815 0 0 1 0 77.67229631z m0 233.01688888a38.83614815 38.83614815 0 0 1 0-77.6722963h543.70607406a38.83614815 38.83614815 0 0 1 0 77.6722963z" /></svg>