<?xml version="1.0" standalone="no"?><!DOCTYPE svg PUBLIC "-//W3C//DTD SVG 1.1//EN" "http://www.w3.org/Graphics/SVG/1.1/DTD/svg11.dtd"><svg class="icon" width="64px" height="64.00px" viewBox="0 0 1024 1024" version="1.1" xmlns="http://www.w3.org/2000/svg"><path fill="#666666" d="M606.26488889 215.60888889H75.49155556c-20.36622222 0-36.864-16.49777778-36.864-36.864s16.49777778-36.864 36.864-36.864h530.77333333c20.36622222 0 36.864 16.49777778 36.864 36.864s-16.49777778 36.864-36.864 36.864zM606.26488889 426.78044445H75.49155556c-20.36622222 0-36.864-16.49777778-36.864-36.864s16.49777778-36.864 36.864-36.864h530.77333333c20.36622222 0 36.864 16.49777778 36.864 36.864 0 20.25244445-16.49777778 36.864-36.864 36.864zM606.26488889 637.83822222H75.49155556c-20.36622222 0-36.864-16.49777778-36.864-36.864s16.49777778-36.864 36.864-36.864h530.77333333c20.36622222 0 36.864 16.49777778 36.864 36.864s-16.49777778 36.864-36.864 36.864zM606.26488889 849.00977778H75.49155556c-20.36622222 0-36.864-16.49777778-36.864-36.864s16.49777778-36.864 36.864-36.864h530.77333333c20.36622222 0 36.864 16.49777778 36.864 36.864s-16.49777778 36.864-36.864 36.864zM791.95022222 875.97511111c-20.36622222 0-36.864-16.49777778-36.864-36.864V157.46844445c0-13.99466667 7.85066667-26.73777778 20.36622223-32.99555556 12.51555555-6.25777778 27.42044445-4.89244445 38.57066667 3.52711111l156.55822222 117.41866667c16.27022222 12.17422222 19.56977778 35.27111111 7.39555555 51.65511111-12.288 16.27022222-35.38488889 19.56977778-51.65511111 7.39555555l-97.50755556-73.15911111v607.91466667c0 20.25244445-16.49777778 36.75022222-36.864 36.75022222z"  /></svg>