<?xml version="1.0" standalone="no"?><!DOCTYPE svg PUBLIC "-//W3C//DTD SVG 1.1//EN" "http://www.w3.org/Graphics/SVG/1.1/DTD/svg11.dtd"><svg class="icon" width="128px" height="128.00px" viewBox="0 0 1024 1024" version="1.1" xmlns="http://www.w3.org/2000/svg"><path fill="#cdcdcd" d="M511.659239 28.606525c-266.662339 0-482.83782 216.175481-482.83782 482.83782s216.175481 482.83782 482.83782 482.83782 482.83782-216.175481 482.83782-482.83782S778.321578 28.606525 511.659239 28.606525zM511.659239 926.515758c-229.237985 0-415.071414-185.833429-415.071414-415.071414S282.421254 96.372931 511.659239 96.372931 926.730653 282.20636 926.730653 511.444345 740.897224 926.515758 511.659239 926.515758zM520.130168 638.507252c74.848709 0 135.533836-60.685127 135.533836-135.533836L655.664004 333.556888c0-74.848709-60.685127-135.533836-135.533836-135.533836s-135.533836 60.685127-135.533836 135.533836l0 169.416528C384.596332 577.822125 445.281459 638.507252 520.130168 638.507252zM435.421904 333.556888c0-46.77635 37.931914-84.708264 84.708264-84.708264 46.77635 0 84.708264 37.931914 84.708264 84.708264l0 169.416528c0 46.77635-37.932937 84.708264-84.708264 84.708264-46.77635 0-84.708264-37.932937-84.708264-84.708264L435.421904 333.556888zM706.488553 536.857131c0 98.82068-87.537705 169.416528-186.358385 169.416528-98.838076 0-186.358385-87.537705-186.358385-186.358385l0-50.825572-50.825572 0 0 67.766406c0 110.263289 94.939279 201.594391 203.300242 217.714534l0 53.352115c0 18.720364 15.163351 33.883715 33.883715 33.883715s33.883715-15.163351 33.883715-33.883715l0-53.352115c108.360963-16.121166 203.300242-107.451244 203.300242-217.714534l0-67.766406-50.825572 0L706.488553 536.857131z" /></svg>