<?xml version="1.0" standalone="no"?><!DOCTYPE svg PUBLIC "-//W3C//DTD SVG 1.1//EN" "http://www.w3.org/Graphics/SVG/1.1/DTD/svg11.dtd"><svg class="icon" width="64px" height="64.00px" viewBox="0 0 1024 1024" version="1.1" xmlns="http://www.w3.org/2000/svg"><path fill="#666666" d="M316.04 327.07c-19.52 0-35.02 15.46-35.02 35.02 0 19.56 15.5 35.02 35.02 35.02 19.56 0 35.05-16.28 35.05-35.02 0-19.56-15.49-35.02-35.05-35.02zM495.58 397.11c19.56 0 35.02-16.28 35.02-35.02 0-19.56-15.47-35.02-35.02-35.02-19.56 0-35.02 15.46-35.02 35.02 0 19.55 15.46 35.02 35.02 35.02zM585.35 513.09c-17.07 0-30.65 13.66-30.65 30.65 0 17.07 13.62 30.65 30.65 30.65 16.84-0.22 30.43-13.82 30.65-30.65 0.01-16.99-13.65-30.65-30.65-30.65zM512.26 0h-0.51C229.12 0 0 229.12 0 511.74v0.51C0 794.88 229.12 1024 511.74 1024h0.51C794.88 1024 1024 794.88 1024 512.26v-0.51C1024 229.12 794.88 0 512.26 0zM407.07 659.32a340.31 340.31 0 0 1-88.2-12.56c-2.53-0.85-5.05-0.85-7.58-0.85-5.04 0.11-9.97 1.55-14.27 4.2l-59.67 34.3c-1.7 0.86-3.38 1.71-5.05 1.71-5.07-0.05-9.16-4.15-9.22-9.21 0-2.53 0.82-4.2 1.67-6.73 0.82-0.82 8.4-28.46 12.59-45.19 0-1.71 0.82-4.2 0.82-5.87a19.007 19.007 0 0 0-7.54-15.09c-57.99-41.06-94.1-102.16-94.1-170.02 0-124.69 121.85-225.21 271.36-225.21 128.51 0 236.54 74.04 263.61 174.01v0.04c-3.19-0.11-6.37-0.16-9.56-0.17-142.47 0-259.62 97.62-259.62 222.04 0 18.91 2.73 37.2 7.78 54.61h-3.02z m402.44 87.14v-0.03c-4.49 2.5-6.86 7.59-5.87 12.63 0 1.64 0 3.31 0.86 5.02 3.34 14.23 10.03 36.9 10.03 37.75 0 2.49 0.85 4.16 0.85 5.87 0 2-0.8 3.91-2.21 5.33a7.563 7.563 0 0 1-5.33 2.19c-1.71 0-2.53-0.82-4.2-1.64l-49.46-28.54a27.207 27.207 0 0 0-11.74-3.34c-2.49 0-5.02 0-6.69 0.82-23.48 6.72-47.78 10.07-73.76 10.07-124.93 0-225.52-83.86-225.52-187.9 0-104 100.59-187.91 225.52-187.91 124.9 0 225.49 83.9 225.49 187.91-0.01 56.2-30.19 107.36-77.97 141.77zM736.39 513.09a30.545 30.545 0 0 0-30.65 30.65c0 17.07 13.65 30.65 30.65 30.65 16.84-0.22 30.43-13.82 30.65-30.65a30.539 30.539 0 0 0-30.65-30.65z" /></svg>